<svg width="48" height="48" viewBox="0 0 48 48" fill="none" xmlns="http://www.w3.org/2000/svg">
<rect width="48" height="48" rx="1" fill="#003049"/>
<path d="M15.4375 17.875V35H12.8438V17.875H15.4375ZM14.1719 11.4688C14.599 11.4688 14.9635 11.6094 15.2656 11.8906C15.5781 12.1615 15.7344 12.5885 15.7344 13.1719C15.7344 13.7448 15.5781 14.1719 15.2656 14.4531C14.9635 14.7344 14.599 14.875 14.1719 14.875C13.724 14.875 13.349 14.7344 13.0469 14.4531C12.7552 14.1719 12.6094 13.7448 12.6094 13.1719C12.6094 12.5885 12.7552 12.1615 13.0469 11.8906C13.349 11.6094 13.724 11.4688 14.1719 11.4688ZM21.3281 12.1562H27.7969C30.651 12.1562 32.7969 12.5833 34.2344 13.4375C35.6719 14.2917 36.3906 15.7448 36.3906 17.7969C36.3906 18.6823 36.2188 19.4792 35.875 20.1875C35.5417 20.8854 35.0521 21.4635 34.4062 21.9219C33.7604 22.3802 32.9635 22.6979 32.0156 22.875V23.0312C33.0156 23.1875 33.901 23.474 34.6719 23.8906C35.4427 24.3073 36.0469 24.8906 36.4844 25.6406C36.9219 26.3906 37.1406 27.3438 37.1406 28.5C37.1406 29.9062 36.8125 31.0938 36.1562 32.0625C35.5104 33.0312 34.5938 33.7656 33.4062 34.2656C32.2188 34.7552 30.8125 35 29.1875 35H21.3281V12.1562ZM23.9844 21.9531H28.3594C30.349 21.9531 31.724 21.625 32.4844 20.9688C33.2552 20.3125 33.6406 19.3542 33.6406 18.0938C33.6406 16.7917 33.1823 15.8542 32.2656 15.2812C31.3594 14.7083 29.9115 14.4219 27.9219 14.4219H23.9844V21.9531ZM23.9844 24.1875V32.7344H28.7344C30.7656 32.7344 32.2031 32.3385 33.0469 31.5469C33.8906 30.7448 34.3125 29.6667 34.3125 28.3125C34.3125 27.4479 34.1198 26.7083 33.7344 26.0938C33.3594 25.4792 32.7448 25.0104 31.8906 24.6875C31.0469 24.3542 29.9167 24.1875 28.5 24.1875H23.9844Z" fill="white"/>
</svg>
